<?xml version="1.0" encoding="utf-8"?>
<!-- Generator: Adobe Illustrator 22.1.0, SVG Export Plug-In . SVG Version: 6.00 Build 0)  -->
<svg version="1.1" xmlns="http://www.w3.org/2000/svg" xmlns:xlink="http://www.w3.org/1999/xlink" x="0px" y="0px"
	 viewBox="0 0 500 500" style="enable-background:new 0 0 500 500;" xml:space="preserve">
<style type="text/css">
	.st0{fill:#FDFEFF;}
	.st1{fill:url(#SVGID_1_);}
	.st2{fill:url(#SVGID_2_);}
	.st3{fill:url(#SVGID_3_);}
	.st4{fill:url(#SVGID_4_);}
	.st5{opacity:0.62;fill:#E5803C;}
	.st6{fill:#12404C;}
	.st7{fill:#ED7D32;}
	.st8{fill:url(#SVGID_5_);}
	.st9{opacity:0.4;fill:#ED7D32;}
	.st10{fill:#0A2830;}
	.st11{fill:#BABAB9;}
	.st12{fill:#C1C1C1;}
	.st13{fill:url(#SVGID_6_);}
	.st14{fill:url(#SVGID_7_);}
	.st15{fill:url(#SVGID_8_);}
</style>
<g id="BACKGROUND">
	<rect class="st0" width="500" height="500"/>
</g>
<g id="OBJECT">
	<g>
		<linearGradient id="SVGID_1_" gradientUnits="userSpaceOnUse" x1="250" y1="573.6976" x2="250" y2="38.8424">
			<stop  offset="0" style="stop-color:#198BF2"/>
			<stop  offset="1" style="stop-color:#22FFE9"/>
		</linearGradient>
		<path class="st1" d="M398.9,307.5c-12-9.5-13.2-27-2.1-37.5c13.2-12.5,25.3-27.6,35.4-44.7c42.1-71.1,35.2-151.9-15.4-180.4
			c-31.1-17.5-71.4-11.2-107.7,12.7c-20.7,13.6-46.9,16.3-69.8,6.7c-13.7-5.7-28.6-8.8-44.1-8.8c-66.8,0-121,57.7-121,128.9
			c0,24.5,6.4,47.3,17.5,66.8c10.1,17.8,5.3,40.1-11.6,52c-25,17.7-39.9,39.7-39.9,63.5c0,58.1,87.9,105.2,196.3,105.2
			s196.3-47.1,196.3-105.2C432.8,344.7,420.3,324.4,398.9,307.5z"/>
		<g>
			<linearGradient id="SVGID_2_" gradientUnits="userSpaceOnUse" x1="175.8923" y1="523.5797" x2="99.4665" y2="294.3017">
				<stop  offset="0" style="stop-color:#198BF2"/>
				<stop  offset="1" style="stop-color:#22FFE9"/>
			</linearGradient>
			<path class="st2" d="M101.5,443.9c0,0-57-30.6-44.2-50.9c12.8-20.3,35.7,7.5,42.7,0.1c6.9-7.4-51.1-38.1-49.9-54.5
				c1.1-16.4,37.6-5.8,37.6-5.8s-39.1-71.2-5.1-86.3c34.1-15.1,51.7,68.4,50.1,77.2c-1.6,8.8,11.9-45,32-29.2
				c10.7,8.4-9.4,75.6,0,71.1c9.5-4.5,19.4-32.4,31.7-17.6c12.3,14.8-13.2,107.1-31.7,114.5C146.2,469.9,101.5,443.9,101.5,443.9z"
				/>
			<path class="st0" d="M161,458.1c-0.2-0.4-16.2-37.8-32.7-78c-22.1-54.1-34.4-87.2-36.4-98.6l1.6-0.3
				c4.9,26.8,68.4,174.8,69,176.3L161,458.1z"/>
			<path class="st0" d="M125.9,372.3L71.6,346l0.7-1.5l52.9,25.5c10.5-21,26-52.7,26.3-55.5l1.6,0.2c-0.4,4.1-24.1,51.4-26.8,56.8
				L125.9,372.3z"/>
			<path class="st0" d="M153.4,438.7l-0.6-0.1c-13.8-2.6-74.5-33.4-77.1-34.7l0.7-1.5c0.6,0.3,61.3,31.2,76.1,34.4
				c3-5.8,28.3-55.2,30.1-64.8l1.6,0.3c-1.9,10.4-29.3,63.6-30.5,65.8L153.4,438.7z"/>
		</g>
		<g>
			
				<linearGradient id="SVGID_3_" gradientUnits="userSpaceOnUse" x1="560.7018" y1="523.5797" x2="484.276" y2="294.3017" gradientTransform="matrix(-1 0 0 1 879.5484 0)">
				<stop  offset="0" style="stop-color:#198BF2"/>
				<stop  offset="1" style="stop-color:#22FFE9"/>
			</linearGradient>
			<path class="st3" d="M393.2,443.9c0,0,57-30.6,44.2-50.9c-12.8-20.3-35.7,7.5-42.7,0.1c-6.9-7.4,51.1-38.1,49.9-54.5
				c-1.1-16.4-37.6-5.8-37.6-5.8s39.1-71.2,5.1-86.3c-34.1-15.1-51.7,68.4-50.1,77.2c1.6,8.8-11.9-45-32-29.2
				c-10.7,8.4,9.4,75.6,0,71.1c-9.5-4.5-19.4-32.4-31.7-17.6c-12.3,14.8,13.2,107.1,31.7,114.5C348.5,469.9,393.2,443.9,393.2,443.9
				z"/>
			<path class="st0" d="M333.8,458.1c0.2-0.4,16.2-37.8,32.7-78c22.1-54.1,34.4-87.2,36.4-98.6l-1.6-0.3
				c-4.9,26.8-68.4,174.8-69,176.3L333.8,458.1z"/>
			<path class="st0" d="M368.8,372.3l54.3-26.2l-0.7-1.5l-52.9,25.5c-10.5-21-26-52.7-26.3-55.5l-1.6,0.2
				c0.4,4.1,24.1,51.4,26.8,56.8L368.8,372.3z"/>
			<path class="st0" d="M341.3,438.7l0.6-0.1c13.8-2.6,74.5-33.4,77.1-34.7l-0.7-1.5c-0.6,0.3-61.3,31.2-76.1,34.4
				c-3-5.8-28.3-55.2-30.1-64.8l-1.6,0.3c1.9,10.4,29.3,63.6,30.5,65.8L341.3,438.7z"/>
		</g>
		<g>
			<linearGradient id="SVGID_4_" gradientUnits="userSpaceOnUse" x1="254.4874" y1="317.5392" x2="254.4874" y2="257.3108">
				<stop  offset="0" style="stop-color:#F48F4A"/>
				<stop  offset="1" style="stop-color:#FFAF66"/>
			</linearGradient>
			<path class="st4" d="M297,275v40.5h-85V275h27.8v-11.5c4.7,1.5,9.6,2.3,14.8,2.3c5.1,0,10.1-0.8,14.8-2.3V275H297z"/>
			<path class="st5" d="M269.2,263.6v6.8c-4.7,1.5-9.6,2.3-14.8,2.3c-5.1,0-10.1-0.8-14.8-2.3v-6.8c4.7,1.5,9.6,2.3,14.8,2.3
				C259.6,265.9,264.6,265.1,269.2,263.6z"/>
			<path class="st6" d="M314.5,200.1h-120v-49.6c0-12.8,10.3-23.1,23.1-23.1h73.8c12.8,0,23.1,10.3,23.1,23.1V200.1z"/>
			<g>
				<path class="st7" d="M213.5,194c4.9,8.6,4.5,18.1-0.9,21.2c-5.4,3.1-13.9-1.3-18.8-9.8c-4.9-8.6-4.5-18.1,0.9-21.2
					C200.2,181.1,208.6,185.5,213.5,194z"/>
				<path class="st7" d="M295.5,194c-4.9,8.6-4.5,18.1,0.9,21.2c5.4,3.1,13.9-1.3,18.8-9.8c4.9-8.6,4.5-18.1-0.9-21.2
					C308.8,181.1,300.4,185.5,295.5,194z"/>
			</g>
			<linearGradient id="SVGID_5_" gradientUnits="userSpaceOnUse" x1="254.4908" y1="287.2613" x2="254.4908" y2="199.0589">
				<stop  offset="0" style="stop-color:#F48F4A"/>
				<stop  offset="1" style="stop-color:#FFAF66"/>
			</linearGradient>
			<path class="st8" d="M254.5,265.9L254.5,265.9c-24.5,0-45-18.5-47.6-42.8l-5.8-44.5c-3.1-23.4,15.1-44.2,38.8-44.2h29.4
				c23.6,0,41.8,20.8,38.8,44.2l-5.8,44.5C299.5,247.4,279,265.9,254.5,265.9z"/>
			<path class="st7" d="M254.5,243.7c6.2,0,11.6-2,14.4-5h-28.9C242.9,241.7,248.3,243.7,254.5,243.7z"/>
			<path class="st7" d="M258,249.2h-7.1c-0.5,0-0.9-0.4-0.9-0.9l0,0c0-0.5,0.4-0.9,0.9-0.9h7.1c0.5,0,0.9,0.4,0.9,0.9l0,0
				C259,248.8,258.6,249.2,258,249.2z"/>
			<path class="st7" d="M258.2,225.8h-7.5l1.5-23.6c0.1-1.2,1.1-2.1,2.3-2.1l0,0c1.2,0,2.2,0.9,2.3,2.1L258.2,225.8z"/>
			<g>
				<g>
					<path class="st6" d="M280.8,214.3c-10.4,0-18.8-8.4-18.8-18.8c0-10.3,8.4-18.8,18.8-18.8c10.4,0,18.8,8.4,18.8,18.8
						C299.5,205.8,291.1,214.3,280.8,214.3z M280.8,179.7c-8.7,0-15.8,7.1-15.8,15.8c0,8.7,7.1,15.8,15.8,15.8
						c8.7,0,15.8-7.1,15.8-15.8C296.5,186.8,289.4,179.7,280.8,179.7z"/>
				</g>
				<g>
					<path class="st6" d="M228.2,214.3c-10.4,0-18.8-8.4-18.8-18.8c0-10.3,8.4-18.8,18.8-18.8c10.4,0,18.8,8.4,18.8,18.8
						C247,205.8,238.6,214.3,228.2,214.3z M228.2,179.7c-8.7,0-15.8,7.1-15.8,15.8c0,8.7,7.1,15.8,15.8,15.8
						c8.7,0,15.8-7.1,15.8-15.8C244,186.8,236.9,179.7,228.2,179.7z"/>
				</g>
				<g>
					<path class="st6" d="M262.9,196.9c-5.5-2.2-11.5-2.2-16.9,0l-1.1-2.8c6.2-2.4,13-2.4,19.1,0L262.9,196.9z"/>
				</g>
			</g>
			<g>
				<g>
					<path class="st6" d="M233,195.9c0,2.3-1.6,4.3-3.5,4.3c-1.9,0-3.5-1.9-3.5-4.3c0-2.3,1.6-4.3,3.5-4.3
						C231.4,191.6,233,193.5,233,195.9z"/>
				</g>
				<g>
					<path class="st6" d="M276,195.9c0,2.3,1.6,4.3,3.5,4.3c1.9,0,3.5-1.9,3.5-4.3c0-2.3-1.6-4.3-3.5-4.3
						C277.6,191.6,276,193.5,276,195.9z"/>
				</g>
			</g>
			<path class="st6" d="M315.3,275h-33.1c0,12.7-11.8,23.1-26.6,23.1c-14.8,0-26.5-10.4-26.6-23.1h-35.3c-13.6,0-25.5,9.7-26.6,22
				l-10.5,122.8h195.8L341.8,297C340.8,284.8,328.9,275,315.3,275z"/>
			<path class="st6" d="M262.9,157h-28c-22.7,0-41.1-19.1-41.1-42.7v-2.2h69.1c12,0,21.6,10.1,21.6,22.4l0,0
				C284.6,146.9,274.9,157,262.9,157z"/>
			<path class="st9" d="M269.2,134.3h-8.6v2.9c-2.4-1-5-1.6-7.7-1.6h-23.1c-15.3,4-26.7,17.1-28.8,32.8c5.5,3.7,12.1,5.9,19.2,5.9
				h32.7c7,0,13.1-3.7,16.5-9.2c6,6.5,14.6,10.5,24.1,10.5h14.8C309.5,153.4,291.8,134.3,269.2,134.3z"/>
			<g>
				<g>
					<path class="st10" d="M192.5,441.1l-3.3-0.2l6.3-113.7c0.2-4.1,1.5-8.1,3.7-11.6l0,0L192.5,441.1z"/>
				</g>
				<g>
					<path class="st10" d="M316.4,441.1l-6.6-125.5l0,0c2.2,3.5,3.5,7.5,3.7,11.6l6.3,113.7L316.4,441.1z"/>
				</g>
			</g>
			<g>
				<path class="st11" d="M357.1,458c0.3-0.4,0.5-0.8,0.7-1.2C357.6,457.2,357.3,457.6,357.1,458z"/>
				<path class="st11" d="M357.8,456.8c0.2-0.4,0.4-0.9,0.5-1.3C358.2,455.9,358,456.3,357.8,456.8z"/>
				<path class="st12" d="M358.7,345.5v6.1c0-5.4-4.4-9.8-9.8-9.8H160.1c-5.4,0-9.8,4.4-9.8,9.8v-6.1c0-5.4,4.4-9.8,9.8-9.8h188.8
					C354.3,335.6,358.7,340,358.7,345.5z"/>
				<linearGradient id="SVGID_6_" gradientUnits="userSpaceOnUse" x1="254.4908" y1="478.1434" x2="254.4908" y2="330.5394">
					<stop  offset="0" style="stop-color:#C1C1C1"/>
					<stop  offset="1" style="stop-color:#D8D6D6"/>
				</linearGradient>
				<path class="st13" d="M348.9,341.7H160.1c-5.4,0-9.8,4.4-9.8,9.8v100.9c0,5.4,4.4,9.8,9.8,9.8h188.8c5.4,0,9.8-4.4,9.8-9.8
					V351.6C358.7,346.1,354.3,341.7,348.9,341.7z"/>
				<linearGradient id="SVGID_7_" gradientUnits="userSpaceOnUse" x1="264.5575" y1="413.8908" x2="246.1245" y2="395.4578">
					<stop  offset="0" style="stop-color:#BDC0C1"/>
					<stop  offset="1" style="stop-color:#9FA2A3"/>
				</linearGradient>
				<path class="st14" d="M266.6,401c1.6,6.7-2.6,13.4-9.3,15c-6.7,1.6-13.4-2.6-15-9.3c-1.6-6.7,2.6-13.4,9.3-15
					C258.3,390.1,265,394.3,266.6,401z"/>
				<linearGradient id="SVGID_8_" gradientUnits="userSpaceOnUse" x1="254.4908" y1="478.4726" x2="254.4908" y2="462.004">
					<stop  offset="0" style="stop-color:#BDC0C1"/>
					<stop  offset="1" style="stop-color:#9FA2A3"/>
				</linearGradient>
				<path class="st15" d="M351.6,476.6H157.4c-3.9,0-7.1-3.2-7.1-7.1v0c0-3.9,3.2-7.1,7.1-7.1h194.2c3.9,0,7.1,3.2,7.1,7.1v0
					C358.7,473.4,355.5,476.6,351.6,476.6z"/>
			</g>
			<g>
				<path class="st6" d="M252.8,169.6h-33.7c-20.4,0-36.9-16.5-36.9-36.9v-5.9h70.6c11.6,0,21,9.4,21,21v0.8
					C273.8,160.2,264.4,169.6,252.8,169.6z"/>
				<path class="st6" d="M277.4,131.5h-16.8v8.5c0,18.1,14.7,32.8,32.8,32.8h16.8v-8.5C310.2,146.2,295.5,131.5,277.4,131.5z"/>
			</g>
		</g>
		<path class="st6" d="M237,185.4h-16.5c-0.8,0-1.5,0.7-1.5,1.5l0,0c0,0.8,0.7,1.5,1.5,1.5H237c0.8,0,1.5-0.7,1.5-1.5l0,0
			C238.5,186.1,237.8,185.4,237,185.4z"/>
		<path class="st6" d="M287.7,185.4h-16.5c-0.8,0-1.5,0.7-1.5,1.5l0,0c0,0.8,0.7,1.5,1.5,1.5h16.5c0.8,0,1.5-0.7,1.5-1.5l0,0
			C289.2,186.1,288.5,185.4,287.7,185.4z"/>
	</g>
</g>
</svg>
